{
	"patcher" : 	{
		"fileversion" : 1,
		"appversion" : 		{
			"major" : 8,
			"minor" : 5,
			"revision" : 8,
			"architecture" : "x64",
			"modernui" : 1
		}
,
		"classnamespace" : "box",
		"rect" : [ 340.0, 50.0, 460.0, 250.0 ],
		"bglocked" : 1,
		"openinpresentation" : 1,
		"default_fontsize" : 10.0,
		"default_fontface" : 0,
		"default_fontname" : "Arial",
		"gridonopen" : 1,
		"gridsize" : [ 12.0, 12.0 ],
		"gridsnaponopen" : 1,
		"objectsnaponopen" : 1,
		"statusbarvisible" : 2,
		"toolbarvisible" : 0,
		"lefttoolbarpinned" : 0,
		"toptoolbarpinned" : 0,
		"righttoolbarpinned" : 0,
		"bottomtoolbarpinned" : 0,
		"toolbars_unpinned_last_save" : 0,
		"tallnewobj" : 0,
		"boxanimatetime" : 200,
		"enablehscroll" : 1,
		"enablevscroll" : 1,
		"devicewidth" : 0.0,
		"description" : "",
		"digest" : "",
		"tags" : "",
		"style" : "",
		"subpatcher_template" : "",
		"assistshowspatchername" : 0,
		"title" : "UDP Tester",
		"boxes" : [ 			{
				"box" : 				{
					"id" : "obj-68",
					"maxclass" : "newobj",
					"numinlets" : 1,
					"numoutlets" : 1,
					"outlettype" : [ "" ],
					"patching_rect" : [ 800.0, 450.0, 67.0, 20.0 ],
					"text" : "prepend help"
				}

			}
, 			{
				"box" : 				{
					"id" : "obj-67",
					"maxclass" : "newobj",
					"numinlets" : 1,
					"numoutlets" : 1,
					"outlettype" : [ "" ],
					"patching_rect" : [ 678.0, 450.0, 67.0, 20.0 ],
					"text" : "prepend load"
				}

			}
, 			{
				"box" : 				{
					"id" : "obj-64",
					"maxclass" : "newobj",
					"numinlets" : 2,
					"numoutlets" : 2,
					"outlettype" : [ "", "" ],
					"patching_rect" : [ 678.0, 423.0, 141.0, 20.0 ],
					"text" : "routepass audio-over-network"
				}

			}
, 			{
				"box" : 				{
					"button" : 1,
					"id" : "obj-63",
					"maxclass" : "tab",
					"numinlets" : 1,
					"numoutlets" : 3,
					"outlettype" : [ "int", "", "" ],
					"parameter_enable" : 0,
					"patching_rect" : [ 637.0, 348.0, 101.0, 65.0 ],
					"presentation" : 1,
					"presentation_rect" : [ 286.5, 175.0, 101.0, 57.0 ],
					"tabs" : [ "jit.net.send", "jit.net.recv", "audio-over-network" ]
				}

			}
, 			{
				"box" : 				{
					"id" : "obj-60",
					"maxclass" : "button",
					"numinlets" : 1,
					"numoutlets" : 1,
					"outlettype" : [ "bang" ],
					"parameter_enable" : 0,
					"patching_rect" : [ 509.0, 336.0, 24.0, 24.0 ]
				}

			}
, 			{
				"box" : 				{
					"id" : "obj-58",
					"maxclass" : "newobj",
					"numinlets" : 1,
					"numoutlets" : 1,
					"outlettype" : [ "" ],
					"patching_rect" : [ 488.0, 423.0, 86.0, 20.0 ],
					"text" : "prepend textcolor"
				}

			}
, 			{
				"box" : 				{
					"id" : "obj-57",
					"maxclass" : "newobj",
					"numinlets" : 1,
					"numoutlets" : 2,
					"outlettype" : [ "list", "bang" ],
					"patching_rect" : [ 488.0, 385.0, 107.0, 20.0 ],
					"text" : "themecolor menu_text"
				}

			}
, 			{
				"box" : 				{
					"hidden" : 1,
					"id" : "obj-52",
					"maxclass" : "newobj",
					"numinlets" : 0,
					"numoutlets" : 2,
					"outlettype" : [ "", "" ],
					"patcher" : 					{
						"fileversion" : 1,
						"appversion" : 						{
							"major" : 8,
							"minor" : 5,
							"revision" : 8,
							"architecture" : "x64",
							"modernui" : 1
						}
,
						"classnamespace" : "box",
						"rect" : [ 84.0, 127.0, 898.0, 481.0 ],
						"bglocked" : 0,
						"openinpresentation" : 0,
						"default_fontsize" : 12.0,
						"default_fontface" : 0,
						"default_fontname" : "Arial",
						"gridonopen" : 1,
						"gridsize" : [ 15.0, 15.0 ],
						"gridsnaponopen" : 1,
						"objectsnaponopen" : 1,
						"statusbarvisible" : 2,
						"toolbarvisible" : 1,
						"lefttoolbarpinned" : 0,
						"toptoolbarpinned" : 0,
						"righttoolbarpinned" : 0,
						"bottomtoolbarpinned" : 0,
						"toolbars_unpinned_last_save" : 0,
						"tallnewobj" : 0,
						"boxanimatetime" : 200,
						"enablehscroll" : 1,
						"enablevscroll" : 1,
						"devicewidth" : 0.0,
						"description" : "",
						"digest" : "",
						"tags" : "",
						"style" : "",
						"subpatcher_template" : "",
						"assistshowspatchername" : 0,
						"boxes" : [ 							{
								"box" : 								{
									"id" : "obj-4",
									"maxclass" : "newobj",
									"numinlets" : 1,
									"numoutlets" : 1,
									"outlettype" : [ "" ],
									"patching_rect" : [ 25.0, 180.708068999999995, 159.0, 22.0 ],
									"text" : "prepend send panel bgcolor"
								}

							}
, 							{
								"box" : 								{
									"id" : "obj-3",
									"maxclass" : "newobj",
									"numinlets" : 1,
									"numoutlets" : 2,
									"outlettype" : [ "list", "bang" ],
									"patching_rect" : [ 24.0, 106.0, 225.0, 22.0 ],
									"text" : "themecolor toolbar_background_inactive"
								}

							}
, 							{
								"box" : 								{
									"id" : "obj-2",
									"maxclass" : "newobj",
									"numinlets" : 1,
									"numoutlets" : 2,
									"outlettype" : [ "list", "bang" ],
									"patching_rect" : [ 600.0, 31.0, 68.0, 22.0 ],
									"text" : "themecolor"
								}

							}
, 							{
								"box" : 								{
									"id" : "obj-5",
									"maxclass" : "newobj",
									"numinlets" : 1,
									"numoutlets" : 1,
									"outlettype" : [ "" ],
									"patching_rect" : [ 454.0, 415.703339000000028, 170.0, 22.0 ],
									"text" : "prepend send number bgcolor"
								}

							}
, 							{
								"box" : 								{
									"id" : "obj-92",
									"maxclass" : "newobj",
									"numinlets" : 1,
									"numoutlets" : 1,
									"outlettype" : [ "" ],
									"patching_rect" : [ 454.0, 358.703339000000028, 162.0, 22.0 ],
									"text" : "prepend send toggle bgcolor"
								}

							}
, 							{
								"box" : 								{
									"id" : "obj-88",
									"maxclass" : "newobj",
									"numinlets" : 1,
									"numoutlets" : 1,
									"outlettype" : [ "" ],
									"patching_rect" : [ 433.0, 309.703339000000028, 184.0, 22.0 ],
									"text" : "prepend send textbutton bgcolor"
								}

							}
, 							{
								"box" : 								{
									"id" : "obj-19",
									"maxclass" : "newobj",
									"numinlets" : 1,
									"numoutlets" : 1,
									"outlettype" : [ "" ],
									"patching_rect" : [ 424.0, 260.663054999999986, 166.0, 22.0 ],
									"text" : "prepend send umenu bgcolor"
								}

							}
, 							{
								"box" : 								{
									"id" : "obj-14",
									"maxclass" : "newobj",
									"numinlets" : 1,
									"numoutlets" : 1,
									"outlettype" : [ "" ],
									"patching_rect" : [ 307.0, 214.208068999999995, 192.0, 22.0 ],
									"text" : "prepend send textbutton textcolor"
								}

							}
, 							{
								"box" : 								{
									"id" : "obj-111",
									"maxclass" : "newobj",
									"numinlets" : 1,
									"numoutlets" : 1,
									"outlettype" : [ "" ],
									"patching_rect" : [ 269.0, 178.909973000000008, 185.0, 22.0 ],
									"text" : "prepend send comment textcolor"
								}

							}
, 							{
								"box" : 								{
									"id" : "obj-109",
									"maxclass" : "message",
									"numinlets" : 2,
									"numoutlets" : 1,
									"outlettype" : [ "" ],
									"patching_rect" : [ 269.0, 143.954986999999988, 74.0, 22.0 ],
									"text" : "$2 $3 $4 $5"
								}

							}
, 							{
								"box" : 								{
									"id" : "obj-94",
									"maxclass" : "newobj",
									"numinlets" : 1,
									"numoutlets" : 2,
									"outlettype" : [ "", "" ],
									"patching_rect" : [ 269.0, 106.0, 284.0, 22.0 ],
									"saved_object_attributes" : 									{
										"filename" : "interfacecolor.js",
										"parameter_enable" : 0
									}
,
									"text" : "js interfacecolor.js patcherbrowser_results_textcolor"
								}

							}
, 							{
								"box" : 								{
									"id" : "obj-118",
									"maxclass" : "message",
									"numinlets" : 2,
									"numoutlets" : 1,
									"outlettype" : [ "" ],
									"patching_rect" : [ 600.0, 209.558562999999992, 74.0, 22.0 ],
									"text" : "$2 $3 $4 $5"
								}

							}
, 							{
								"box" : 								{
									"id" : "obj-117",
									"maxclass" : "newobj",
									"numinlets" : 1,
									"numoutlets" : 2,
									"outlettype" : [ "", "" ],
									"patching_rect" : [ 600.0, 168.558562999999992, 252.0, 22.0 ],
									"saved_object_attributes" : 									{
										"filename" : "interfacecolor.js",
										"parameter_enable" : 0
									}
,
									"text" : "js interfacecolor.js toolbar_background_active"
								}

							}
, 							{
								"box" : 								{
									"comment" : "",
									"id" : "obj-13",
									"index" : 1,
									"maxclass" : "outlet",
									"numinlets" : 1,
									"numoutlets" : 0,
									"patching_rect" : [ 269.0, 428.0, 30.0, 30.0 ]
								}

							}
, 							{
								"box" : 								{
									"comment" : "",
									"id" : "obj-15",
									"index" : 2,
									"maxclass" : "outlet",
									"numinlets" : 1,
									"numoutlets" : 0,
									"patching_rect" : [ 660.0, 415.703339000000028, 30.0, 30.0 ]
								}

							}
 ],
						"lines" : [ 							{
								"patchline" : 								{
									"destination" : [ "obj-111", 0 ],
									"order" : 1,
									"source" : [ "obj-109", 0 ]
								}

							}
, 							{
								"patchline" : 								{
									"destination" : [ "obj-14", 0 ],
									"order" : 0,
									"source" : [ "obj-109", 0 ]
								}

							}
, 							{
								"patchline" : 								{
									"destination" : [ "obj-13", 0 ],
									"source" : [ "obj-111", 0 ]
								}

							}
, 							{
								"patchline" : 								{
									"destination" : [ "obj-118", 0 ],
									"source" : [ "obj-117", 0 ]
								}

							}
, 							{
								"patchline" : 								{
									"destination" : [ "obj-15", 0 ],
									"order" : 0,
									"source" : [ "obj-118", 0 ]
								}

							}
, 							{
								"patchline" : 								{
									"destination" : [ "obj-19", 0 ],
									"order" : 4,
									"source" : [ "obj-118", 0 ]
								}

							}
, 							{
								"patchline" : 								{
									"destination" : [ "obj-5", 0 ],
									"order" : 1,
									"source" : [ "obj-118", 0 ]
								}

							}
, 							{
								"patchline" : 								{
									"destination" : [ "obj-88", 0 ],
									"order" : 3,
									"source" : [ "obj-118", 0 ]
								}

							}
, 							{
								"patchline" : 								{
									"destination" : [ "obj-92", 0 ],
									"order" : 2,
									"source" : [ "obj-118", 0 ]
								}

							}
, 							{
								"patchline" : 								{
									"destination" : [ "obj-13", 0 ],
									"source" : [ "obj-14", 0 ]
								}

							}
, 							{
								"patchline" : 								{
									"destination" : [ "obj-13", 0 ],
									"source" : [ "obj-19", 0 ]
								}

							}
, 							{
								"patchline" : 								{
									"destination" : [ "obj-117", 0 ],
									"order" : 0,
									"source" : [ "obj-2", 1 ]
								}

							}
, 							{
								"patchline" : 								{
									"destination" : [ "obj-3", 0 ],
									"order" : 2,
									"source" : [ "obj-2", 1 ]
								}

							}
, 							{
								"patchline" : 								{
									"destination" : [ "obj-94", 0 ],
									"order" : 1,
									"source" : [ "obj-2", 1 ]
								}

							}
, 							{
								"patchline" : 								{
									"destination" : [ "obj-4", 0 ],
									"source" : [ "obj-3", 0 ]
								}

							}
, 							{
								"patchline" : 								{
									"destination" : [ "obj-13", 0 ],
									"source" : [ "obj-4", 0 ]
								}

							}
, 							{
								"patchline" : 								{
									"destination" : [ "obj-13", 0 ],
									"source" : [ "obj-5", 0 ]
								}

							}
, 							{
								"patchline" : 								{
									"destination" : [ "obj-13", 0 ],
									"source" : [ "obj-88", 0 ]
								}

							}
, 							{
								"patchline" : 								{
									"destination" : [ "obj-13", 0 ],
									"source" : [ "obj-92", 0 ]
								}

							}
, 							{
								"patchline" : 								{
									"destination" : [ "obj-109", 0 ],
									"source" : [ "obj-94", 0 ]
								}

							}
 ],
						"bgfillcolor_type" : "gradient",
						"bgfillcolor_color1" : [ 0.454902, 0.462745, 0.482353, 1.0 ],
						"bgfillcolor_color2" : [ 0.290196, 0.309804, 0.301961, 1.0 ],
						"bgfillcolor_color" : [ 0.290196, 0.309804, 0.301961, 1.0 ]
					}
,
					"patching_rect" : [ 779.0, 263.336945000000014, 105.0, 20.0 ],
					"saved_object_attributes" : 					{
						"description" : "",
						"digest" : "",
						"globalpatchername" : "",
						"tags" : ""
					}
,
					"text" : "p autocolor"
				}

			}
, 			{
				"box" : 				{
					"hidden" : 1,
					"id" : "obj-110",
					"maxclass" : "newobj",
					"numinlets" : 1,
					"numoutlets" : 0,
					"patching_rect" : [ 779.0, 300.0, 68.0, 20.0 ],
					"text" : "universal 1"
				}

			}
, 			{
				"box" : 				{
					"hidden" : 1,
					"id" : "obj-119",
					"maxclass" : "newobj",
					"numinlets" : 4,
					"numoutlets" : 0,
					"patching_rect" : [ 865.0, 300.0, 50.5, 20.0 ],
					"text" : "bgcolor"
				}

			}
, 			{
				"box" : 				{
					"fontface" : 0,
					"fontname" : "Lato",
					"fontsize" : 10.0,
					"id" : "obj-38",
					"maxclass" : "newobj",
					"numinlets" : 1,
					"numoutlets" : 2,
					"outlettype" : [ "select", "" ],
					"patching_rect" : [ 100.0, 86.0, 47.0, 20.0 ],
					"text" : "t select l"
				}

			}
, 			{
				"box" : 				{
					"bgcolor" : [ 0.2, 0.2, 0.2, 1.0 ],
					"hidden" : 1,
					"id" : "obj-125",
					"maxclass" : "toggle",
					"numinlets" : 1,
					"numoutlets" : 1,
					"outlettype" : [ "int" ],
					"parameter_enable" : 0,
					"patching_rect" : [ 32.0, 220.0, 18.0, 18.0 ],
					"presentation" : 1,
					"presentation_rect" : [ 21.0, 138.0, 18.0, 18.0 ],
					"prototypename" : "Arial9"
				}

			}
, 			{
				"box" : 				{
					"fontface" : 1,
					"fontname" : "Lato",
					"fontsize" : 12.754706000000001,
					"hidden" : 1,
					"id" : "obj-126",
					"maxclass" : "comment",
					"numinlets" : 1,
					"numoutlets" : 0,
					"patching_rect" : [ 21.0, 195.0, 41.0, 22.0 ],
					"presentation" : 1,
					"presentation_rect" : [ 40.0, 137.0, 41.0, 22.0 ],
					"text" : "View",
					"textcolor" : [ 0.968627, 0.968627, 0.968627, 1.0 ]
				}

			}
, 			{
				"box" : 				{
					"bgcolor" : [ 0.2, 0.2, 0.2, 1.0 ],
					"hidden" : 1,
					"id" : "obj-127",
					"maxclass" : "toggle",
					"numinlets" : 1,
					"numoutlets" : 1,
					"outlettype" : [ "int" ],
					"parameter_enable" : 0,
					"patching_rect" : [ 69.0, 220.0, 18.0, 18.0 ],
					"presentation" : 1,
					"presentation_rect" : [ 153.0, 139.0, 18.0, 18.0 ],
					"prototypename" : "Arial9"
				}

			}
, 			{
				"box" : 				{
					"fontface" : 1,
					"fontname" : "Lato",
					"fontsize" : 12.754706000000001,
					"hidden" : 1,
					"id" : "obj-130",
					"maxclass" : "comment",
					"numinlets" : 1,
					"numoutlets" : 0,
					"patching_rect" : [ 58.0, 195.0, 56.0, 22.0 ],
					"presentation" : 1,
					"presentation_rect" : [ 172.0, 138.0, 58.0, 22.0 ],
					"text" : "NoFloat",
					"textcolor" : [ 0.968627, 0.968627, 0.968627, 1.0 ]
				}

			}
, 			{
				"box" : 				{
					"fontface" : 0,
					"fontname" : "Lato",
					"fontsize" : 10.435669000000001,
					"id" : "obj-142",
					"maxclass" : "newobj",
					"numinlets" : 1,
					"numoutlets" : 2,
					"outlettype" : [ "", "" ],
					"patching_rect" : [ 32.0, 266.0, 62.0, 21.0 ],
					"save" : [ "#N", "thispatcher", ";", "#Q", "window", "flags", "nogrow", "close", "nozoom", "float", "menu", "minimize", ";", "#Q", "window", "constrain", 50, 50, 32768, 32768, ";", "#Q", "window", "size", 340, 50, 800, 300, ";", "#Q", "window", "title", ";", "#Q", "window", "exec", ";", "#Q", "savewindow", 1, ";", "#Q", "end", ";" ],
					"text" : "thispatcher"
				}

			}
, 			{
				"box" : 				{
					"fontface" : 0,
					"fontname" : "Lato",
					"fontsize" : 11.595186999999999,
					"id" : "obj-140",
					"maxclass" : "newobj",
					"numinlets" : 2,
					"numoutlets" : 1,
					"outlettype" : [ "" ],
					"patcher" : 					{
						"fileversion" : 1,
						"appversion" : 						{
							"major" : 8,
							"minor" : 5,
							"revision" : 8,
							"architecture" : "x64",
							"modernui" : 1
						}
,
						"classnamespace" : "box",
						"rect" : [ 401.0, 384.0, 657.0, 488.0 ],
						"bglocked" : 0,
						"openinpresentation" : 0,
						"default_fontsize" : 9.0,
						"default_fontface" : 0,
						"default_fontname" : "Lato",
						"gridonopen" : 1,
						"gridsize" : [ 15.0, 15.0 ],
						"gridsnaponopen" : 1,
						"objectsnaponopen" : 1,
						"statusbarvisible" : 2,
						"toolbarvisible" : 1,
						"lefttoolbarpinned" : 0,
						"toptoolbarpinned" : 0,
						"righttoolbarpinned" : 0,
						"bottomtoolbarpinned" : 0,
						"toolbars_unpinned_last_save" : 0,
						"tallnewobj" : 0,
						"boxanimatetime" : 200,
						"enablehscroll" : 1,
						"enablevscroll" : 1,
						"devicewidth" : 0.0,
						"description" : "",
						"digest" : "",
						"tags" : "",
						"style" : "",
						"subpatcher_template" : "",
						"assistshowspatchername" : 0,
						"boxes" : [ 							{
								"box" : 								{
									"fontname" : "Lato",
									"fontsize" : 10.435669000000001,
									"id" : "obj-13",
									"maxclass" : "newobj",
									"numinlets" : 1,
									"numoutlets" : 1,
									"outlettype" : [ "" ],
									"patching_rect" : [ 466.0, 378.0, 19.0, 18.0 ],
									"text" : "t l"
								}

							}
, 							{
								"box" : 								{
									"comment" : "",
									"id" : "obj-5",
									"index" : 2,
									"maxclass" : "inlet",
									"numinlets" : 0,
									"numoutlets" : 1,
									"outlettype" : [ "int" ],
									"patching_rect" : [ 466.0, 257.0, 18.0, 18.0 ],
									"prototypename" : "Arial9"
								}

							}
, 							{
								"box" : 								{
									"bgcolor" : [ 0.2, 0.2, 0.2, 1.0 ],
									"id" : "obj-6",
									"maxclass" : "toggle",
									"numinlets" : 1,
									"numoutlets" : 1,
									"outlettype" : [ "int" ],
									"parameter_enable" : 0,
									"patching_rect" : [ 466.0, 279.0, 18.0, 18.0 ],
									"prototypename" : "Arial9"
								}

							}
, 							{
								"box" : 								{
									"fontname" : "Lato",
									"fontsize" : 10.435669000000001,
									"id" : "obj-8",
									"maxclass" : "newobj",
									"numinlets" : 3,
									"numoutlets" : 3,
									"outlettype" : [ "bang", "bang", "" ],
									"patching_rect" : [ 466.0, 301.0, 46.0, 18.0 ],
									"text" : "sel 1 0"
								}

							}
, 							{
								"box" : 								{
									"fontname" : "Lato",
									"fontsize" : 10.435669000000001,
									"id" : "obj-1",
									"maxclass" : "message",
									"numinlets" : 2,
									"numoutlets" : 1,
									"outlettype" : [ "" ],
									"patching_rect" : [ 362.0, 428.0, 76.0, 16.0 ],
									"text" : "savewindow 1"
								}

							}
, 							{
								"box" : 								{
									"fontname" : "Lato",
									"fontsize" : 10.435669000000001,
									"id" : "obj-63",
									"maxclass" : "newobj",
									"numinlets" : 2,
									"numoutlets" : 1,
									"outlettype" : [ "" ],
									"patching_rect" : [ 43.0, 301.0, 32.5, 18.0 ],
									"text" : "qlim"
								}

							}
, 							{
								"box" : 								{
									"fontname" : "Lato",
									"fontsize" : 10.435669000000001,
									"id" : "obj-62",
									"maxclass" : "newobj",
									"numinlets" : 2,
									"numoutlets" : 1,
									"outlettype" : [ "" ],
									"patching_rect" : [ 283.0, 301.0, 32.5, 18.0 ],
									"text" : "qlim"
								}

							}
, 							{
								"box" : 								{
									"fontname" : "Lato",
									"fontsize" : 10.435669000000001,
									"id" : "obj-37",
									"maxclass" : "newobj",
									"numinlets" : 1,
									"numoutlets" : 1,
									"outlettype" : [ "" ],
									"patching_rect" : [ 43.0, 378.0, 19.0, 18.0 ],
									"text" : "t l"
								}

							}
, 							{
								"box" : 								{
									"fontname" : "Lato",
									"fontsize" : 10.435669000000001,
									"id" : "obj-38",
									"maxclass" : "message",
									"numinlets" : 2,
									"numoutlets" : 1,
									"outlettype" : [ "" ],
									"patching_rect" : [ 466.0, 323.0, 170.0, 16.0 ],
									"text" : "window flags nofloat, window exec"
								}

							}
, 							{
								"box" : 								{
									"fontname" : "Lato",
									"fontsize" : 10.435669000000001,
									"id" : "obj-39",
									"maxclass" : "message",
									"numinlets" : 2,
									"numoutlets" : 1,
									"outlettype" : [ "" ],
									"patching_rect" : [ 43.0, 323.0, 70.0, 16.0 ],
									"text" : "window exec"
								}

							}
, 							{
								"box" : 								{
									"fontname" : "Lato",
									"fontsize" : 10.435669000000001,
									"id" : "obj-40",
									"maxclass" : "newobj",
									"numinlets" : 1,
									"numoutlets" : 3,
									"outlettype" : [ "bang", "", "bang" ],
									"patching_rect" : [ 43.0, 279.0, 46.0, 18.0 ],
									"text" : "t b l b"
								}

							}
, 							{
								"box" : 								{
									"fontname" : "Lato",
									"fontsize" : 10.435669000000001,
									"id" : "obj-42",
									"linecount" : 2,
									"maxclass" : "message",
									"numinlets" : 2,
									"numoutlets" : 1,
									"outlettype" : [ "" ],
									"patching_rect" : [ 70.0, 343.0, 100.0, 28.0 ],
									"presentation_linecount" : 2,
									"text" : "window flags grow, window flags zoom"
								}

							}
, 							{
								"box" : 								{
									"fontname" : "Lato",
									"fontsize" : 10.435669000000001,
									"id" : "obj-43",
									"maxclass" : "newobj",
									"numinlets" : 1,
									"numoutlets" : 1,
									"outlettype" : [ "" ],
									"patching_rect" : [ 43.0, 257.0, 108.0, 18.0 ],
									"text" : "prepend window size"
								}

							}
, 							{
								"box" : 								{
									"fontname" : "Lato",
									"fontsize" : 10.435669000000001,
									"id" : "obj-45",
									"maxclass" : "comment",
									"numinlets" : 1,
									"numoutlets" : 0,
									"patching_rect" : [ 208.0, 186.0, 37.0, 18.0 ],
									"text" : "Ymax",
									"textcolor" : [ 0.968627, 0.968627, 0.968627, 1.0 ]
								}

							}
, 							{
								"box" : 								{
									"fontname" : "Lato",
									"fontsize" : 10.435669000000001,
									"id" : "obj-46",
									"maxclass" : "comment",
									"numinlets" : 1,
									"numoutlets" : 0,
									"patching_rect" : [ 157.0, 186.0, 37.0, 18.0 ],
									"text" : "Xmax",
									"textcolor" : [ 0.968627, 0.968627, 0.968627, 1.0 ]
								}

							}
, 							{
								"box" : 								{
									"fontname" : "Lato",
									"fontsize" : 10.435669000000001,
									"id" : "obj-47",
									"maxclass" : "comment",
									"numinlets" : 1,
									"numoutlets" : 0,
									"patching_rect" : [ 105.0, 186.0, 34.0, 18.0 ],
									"text" : "Ymin",
									"textcolor" : [ 0.968627, 0.968627, 0.968627, 1.0 ]
								}

							}
, 							{
								"box" : 								{
									"fontname" : "Lato",
									"fontsize" : 10.435669000000001,
									"id" : "obj-48",
									"maxclass" : "comment",
									"numinlets" : 1,
									"numoutlets" : 0,
									"patching_rect" : [ 54.0, 186.0, 34.0, 18.0 ],
									"text" : "Xmin",
									"textcolor" : [ 0.968627, 0.968627, 0.968627, 1.0 ]
								}

							}
, 							{
								"box" : 								{
									"fontname" : "Lato",
									"fontsize" : 10.435669000000001,
									"id" : "obj-49",
									"maxclass" : "comment",
									"numinlets" : 1,
									"numoutlets" : 0,
									"patching_rect" : [ 171.0, 147.0, 31.0, 18.0 ],
									"text" : "pref.",
									"textcolor" : [ 0.968627, 0.968627, 0.968627, 1.0 ]
								}

							}
, 							{
								"box" : 								{
									"fontname" : "Lato",
									"fontsize" : 10.435669000000001,
									"id" : "obj-51",
									"maxclass" : "newobj",
									"numinlets" : 1,
									"numoutlets" : 4,
									"outlettype" : [ "int", "int", "int", "int" ],
									"patching_rect" : [ 43.0, 167.0, 173.0, 18.0 ],
									"text" : "unpack 0 0 0 0"
								}

							}
, 							{
								"box" : 								{
									"fontname" : "Lato",
									"fontsize" : 10.435669000000001,
									"id" : "obj-52",
									"maxclass" : "message",
									"numinlets" : 2,
									"numoutlets" : 1,
									"outlettype" : [ "" ],
									"patching_rect" : [ 43.0, 147.0, 127.0, 16.0 ],
									"text" : "5 50 800 400"
								}

							}
, 							{
								"box" : 								{
									"bgcolor" : [ 0.2, 0.2, 0.2, 1.0 ],
									"fontname" : "Lato",
									"fontsize" : 10.435669000000001,
									"id" : "obj-53",
									"maxclass" : "number",
									"numinlets" : 1,
									"numoutlets" : 2,
									"outlettype" : [ "", "bang" ],
									"parameter_enable" : 0,
									"patching_rect" : [ 197.0, 205.0, 50.0, 18.0 ]
								}

							}
, 							{
								"box" : 								{
									"bgcolor" : [ 0.2, 0.2, 0.2, 1.0 ],
									"fontname" : "Lato",
									"fontsize" : 10.435669000000001,
									"id" : "obj-54",
									"maxclass" : "number",
									"numinlets" : 1,
									"numoutlets" : 2,
									"outlettype" : [ "", "bang" ],
									"parameter_enable" : 0,
									"patching_rect" : [ 146.0, 205.0, 50.0, 18.0 ]
								}

							}
, 							{
								"box" : 								{
									"fontname" : "Lato",
									"fontsize" : 10.435669000000001,
									"id" : "obj-55",
									"maxclass" : "newobj",
									"numinlets" : 4,
									"numoutlets" : 1,
									"outlettype" : [ "" ],
									"patching_rect" : [ 43.0, 227.0, 173.0, 18.0 ],
									"text" : "pak 0 0 0 0"
								}

							}
, 							{
								"box" : 								{
									"bgcolor" : [ 0.2, 0.2, 0.2, 1.0 ],
									"fontname" : "Lato",
									"fontsize" : 10.435669000000001,
									"id" : "obj-56",
									"maxclass" : "number",
									"numinlets" : 1,
									"numoutlets" : 2,
									"outlettype" : [ "", "bang" ],
									"parameter_enable" : 0,
									"patching_rect" : [ 94.0, 205.0, 51.0, 18.0 ]
								}

							}
, 							{
								"box" : 								{
									"bgcolor" : [ 0.2, 0.2, 0.2, 1.0 ],
									"fontname" : "Lato",
									"fontsize" : 10.435669000000001,
									"id" : "obj-57",
									"maxclass" : "number",
									"numinlets" : 1,
									"numoutlets" : 2,
									"outlettype" : [ "", "bang" ],
									"parameter_enable" : 0,
									"patching_rect" : [ 43.0, 205.0, 50.0, 18.0 ]
								}

							}
, 							{
								"box" : 								{
									"fontname" : "Lato",
									"fontsize" : 10.435669000000001,
									"id" : "obj-35",
									"maxclass" : "newobj",
									"numinlets" : 1,
									"numoutlets" : 1,
									"outlettype" : [ "" ],
									"patching_rect" : [ 283.0, 378.0, 19.0, 18.0 ],
									"text" : "t l"
								}

							}
, 							{
								"box" : 								{
									"fontname" : "Lato",
									"fontsize" : 10.435669000000001,
									"id" : "obj-32",
									"maxclass" : "message",
									"numinlets" : 2,
									"numoutlets" : 1,
									"outlettype" : [ "" ],
									"patching_rect" : [ 480.0, 343.0, 158.0, 16.0 ],
									"text" : "window flags float, window exec"
								}

							}
, 							{
								"box" : 								{
									"fontname" : "Lato",
									"fontsize" : 10.435669000000001,
									"id" : "obj-31",
									"maxclass" : "message",
									"numinlets" : 2,
									"numoutlets" : 1,
									"outlettype" : [ "" ],
									"patching_rect" : [ 283.0, 323.0, 70.0, 16.0 ],
									"text" : "window exec"
								}

							}
, 							{
								"box" : 								{
									"fontname" : "Lato",
									"fontsize" : 10.435669000000001,
									"id" : "obj-30",
									"maxclass" : "newobj",
									"numinlets" : 1,
									"numoutlets" : 3,
									"outlettype" : [ "bang", "", "bang" ],
									"patching_rect" : [ 283.0, 279.0, 46.0, 18.0 ],
									"text" : "t b l b"
								}

							}
, 							{
								"box" : 								{
									"fontname" : "Lato",
									"fontsize" : 10.435669000000001,
									"id" : "obj-29",
									"linecount" : 2,
									"maxclass" : "message",
									"numinlets" : 2,
									"numoutlets" : 1,
									"outlettype" : [ "" ],
									"patching_rect" : [ 310.0, 343.0, 113.0, 28.0 ],
									"presentation_linecount" : 2,
									"text" : "window flags nogrow, window flags nozoom"
								}

							}
, 							{
								"box" : 								{
									"fontname" : "Lato",
									"fontsize" : 10.435669000000001,
									"id" : "obj-28",
									"maxclass" : "newobj",
									"numinlets" : 1,
									"numoutlets" : 1,
									"outlettype" : [ "" ],
									"patching_rect" : [ 283.0, 257.0, 108.0, 18.0 ],
									"text" : "prepend window size"
								}

							}
, 							{
								"box" : 								{
									"fontname" : "Lato",
									"fontsize" : 10.435669000000001,
									"id" : "obj-27",
									"maxclass" : "comment",
									"numinlets" : 1,
									"numoutlets" : 0,
									"patching_rect" : [ 448.0, 186.0, 37.0, 18.0 ],
									"text" : "Ymax",
									"textcolor" : [ 0.968627, 0.968627, 0.968627, 1.0 ]
								}

							}
, 							{
								"box" : 								{
									"fontname" : "Lato",
									"fontsize" : 10.435669000000001,
									"id" : "obj-26",
									"maxclass" : "comment",
									"numinlets" : 1,
									"numoutlets" : 0,
									"patching_rect" : [ 397.0, 186.0, 37.0, 18.0 ],
									"text" : "Xmax",
									"textcolor" : [ 0.968627, 0.968627, 0.968627, 1.0 ]
								}

							}
, 							{
								"box" : 								{
									"fontname" : "Lato",
									"fontsize" : 10.435669000000001,
									"id" : "obj-23",
									"maxclass" : "comment",
									"numinlets" : 1,
									"numoutlets" : 0,
									"patching_rect" : [ 345.0, 186.0, 34.0, 18.0 ],
									"text" : "Ymin",
									"textcolor" : [ 0.968627, 0.968627, 0.968627, 1.0 ]
								}

							}
, 							{
								"box" : 								{
									"fontname" : "Lato",
									"fontsize" : 10.435669000000001,
									"id" : "obj-22",
									"maxclass" : "comment",
									"numinlets" : 1,
									"numoutlets" : 0,
									"patching_rect" : [ 294.0, 186.0, 34.0, 18.0 ],
									"text" : "Xmin",
									"textcolor" : [ 0.968627, 0.968627, 0.968627, 1.0 ]
								}

							}
, 							{
								"box" : 								{
									"fontname" : "Lato",
									"fontsize" : 10.435669000000001,
									"id" : "obj-20",
									"maxclass" : "comment",
									"numinlets" : 1,
									"numoutlets" : 0,
									"patching_rect" : [ 411.0, 147.0, 31.0, 18.0 ],
									"text" : "pref.",
									"textcolor" : [ 0.968627, 0.968627, 0.968627, 1.0 ]
								}

							}
, 							{
								"box" : 								{
									"fontname" : "Lato",
									"fontsize" : 10.435669000000001,
									"id" : "obj-18",
									"maxclass" : "newobj",
									"numinlets" : 1,
									"numoutlets" : 4,
									"outlettype" : [ "int", "int", "int", "int" ],
									"patching_rect" : [ 283.0, 167.0, 173.0, 18.0 ],
									"text" : "unpack 0 0 0 0"
								}

							}
, 							{
								"box" : 								{
									"fontname" : "Lato",
									"fontsize" : 10.435669000000001,
									"id" : "obj-16",
									"maxclass" : "message",
									"numinlets" : 2,
									"numoutlets" : 1,
									"outlettype" : [ "" ],
									"patching_rect" : [ 283.0, 147.0, 127.0, 16.0 ],
									"text" : "340 50 800 300"
								}

							}
, 							{
								"box" : 								{
									"bgcolor" : [ 0.2, 0.2, 0.2, 1.0 ],
									"fontname" : "Lato",
									"fontsize" : 10.435669000000001,
									"id" : "obj-12",
									"maxclass" : "number",
									"numinlets" : 1,
									"numoutlets" : 2,
									"outlettype" : [ "", "bang" ],
									"parameter_enable" : 0,
									"patching_rect" : [ 437.0, 205.0, 50.0, 18.0 ]
								}

							}
, 							{
								"box" : 								{
									"bgcolor" : [ 0.2, 0.2, 0.2, 1.0 ],
									"fontname" : "Lato",
									"fontsize" : 10.435669000000001,
									"id" : "obj-15",
									"maxclass" : "number",
									"numinlets" : 1,
									"numoutlets" : 2,
									"outlettype" : [ "", "bang" ],
									"parameter_enable" : 0,
									"patching_rect" : [ 386.0, 205.0, 50.0, 18.0 ]
								}

							}
, 							{
								"box" : 								{
									"fontname" : "Lato",
									"fontsize" : 10.435669000000001,
									"id" : "obj-7",
									"maxclass" : "newobj",
									"numinlets" : 4,
									"numoutlets" : 1,
									"outlettype" : [ "" ],
									"patching_rect" : [ 283.0, 227.0, 173.0, 18.0 ],
									"text" : "pak 0 0 0 0"
								}

							}
, 							{
								"box" : 								{
									"bgcolor" : [ 0.2, 0.2, 0.2, 1.0 ],
									"fontname" : "Lato",
									"fontsize" : 10.435669000000001,
									"id" : "obj-4",
									"maxclass" : "number",
									"numinlets" : 1,
									"numoutlets" : 2,
									"outlettype" : [ "", "bang" ],
									"parameter_enable" : 0,
									"patching_rect" : [ 334.0, 205.0, 51.0, 18.0 ]
								}

							}
, 							{
								"box" : 								{
									"bgcolor" : [ 0.2, 0.2, 0.2, 1.0 ],
									"fontname" : "Lato",
									"fontsize" : 10.435669000000001,
									"id" : "obj-3",
									"maxclass" : "number",
									"numinlets" : 1,
									"numoutlets" : 2,
									"outlettype" : [ "", "bang" ],
									"parameter_enable" : 0,
									"patching_rect" : [ 283.0, 205.0, 50.0, 18.0 ]
								}

							}
, 							{
								"box" : 								{
									"fontname" : "Lato",
									"fontsize" : 10.435669000000001,
									"id" : "obj-11",
									"maxclass" : "comment",
									"numinlets" : 1,
									"numoutlets" : 0,
									"patching_rect" : [ 284.0, 69.0, 31.0, 18.0 ],
									"text" : "view",
									"textcolor" : [ 0.968627, 0.968627, 0.968627, 1.0 ]
								}

							}
, 							{
								"box" : 								{
									"fontname" : "Lato",
									"fontsize" : 10.435669000000001,
									"id" : "obj-10",
									"maxclass" : "message",
									"numinlets" : 2,
									"numoutlets" : 1,
									"outlettype" : [ "" ],
									"patching_rect" : [ 250.0, 90.0, 82.0, 16.0 ],
									"text" : "presentation $1"
								}

							}
, 							{
								"box" : 								{
									"fontname" : "Lato",
									"fontsize" : 10.435669000000001,
									"id" : "obj-9",
									"maxclass" : "newobj",
									"numinlets" : 2,
									"numoutlets" : 1,
									"outlettype" : [ "int" ],
									"patching_rect" : [ 250.0, 69.0, 32.5, 18.0 ],
									"text" : "== 0"
								}

							}
, 							{
								"box" : 								{
									"comment" : "",
									"id" : "obj-44",
									"index" : 1,
									"maxclass" : "inlet",
									"numinlets" : 0,
									"numoutlets" : 1,
									"outlettype" : [ "int" ],
									"patching_rect" : [ 153.0, 17.0, 18.0, 18.0 ],
									"prototypename" : "Arial9"
								}

							}
, 							{
								"box" : 								{
									"bgcolor" : [ 0.2, 0.2, 0.2, 1.0 ],
									"id" : "obj-41",
									"maxclass" : "toggle",
									"numinlets" : 1,
									"numoutlets" : 1,
									"outlettype" : [ "int" ],
									"parameter_enable" : 0,
									"patching_rect" : [ 153.0, 52.0, 18.0, 18.0 ],
									"prototypename" : "Arial9"
								}

							}
, 							{
								"box" : 								{
									"fontname" : "Lato",
									"fontsize" : 10.435669000000001,
									"id" : "obj-25",
									"maxclass" : "newobj",
									"numinlets" : 3,
									"numoutlets" : 3,
									"outlettype" : [ "bang", "bang", "" ],
									"patching_rect" : [ 153.0, 74.0, 46.0, 18.0 ],
									"text" : "sel 1 0"
								}

							}
, 							{
								"box" : 								{
									"comment" : "",
									"id" : "obj-21",
									"index" : 1,
									"maxclass" : "outlet",
									"numinlets" : 1,
									"numoutlets" : 0,
									"patching_rect" : [ 250.0, 443.0, 18.0, 18.0 ],
									"prototypename" : "Arial9"
								}

							}
 ],
						"lines" : [ 							{
								"patchline" : 								{
									"destination" : [ "obj-21", 0 ],
									"source" : [ "obj-1", 0 ]
								}

							}
, 							{
								"patchline" : 								{
									"destination" : [ "obj-21", 0 ],
									"source" : [ "obj-10", 0 ]
								}

							}
, 							{
								"patchline" : 								{
									"destination" : [ "obj-7", 3 ],
									"source" : [ "obj-12", 0 ]
								}

							}
, 							{
								"patchline" : 								{
									"destination" : [ "obj-21", 0 ],
									"source" : [ "obj-13", 0 ]
								}

							}
, 							{
								"patchline" : 								{
									"destination" : [ "obj-7", 2 ],
									"source" : [ "obj-15", 0 ]
								}

							}
, 							{
								"patchline" : 								{
									"destination" : [ "obj-18", 0 ],
									"source" : [ "obj-16", 0 ]
								}

							}
, 							{
								"patchline" : 								{
									"destination" : [ "obj-12", 0 ],
									"source" : [ "obj-18", 3 ]
								}

							}
, 							{
								"patchline" : 								{
									"destination" : [ "obj-15", 0 ],
									"source" : [ "obj-18", 2 ]
								}

							}
, 							{
								"patchline" : 								{
									"destination" : [ "obj-3", 0 ],
									"source" : [ "obj-18", 0 ]
								}

							}
, 							{
								"patchline" : 								{
									"destination" : [ "obj-4", 0 ],
									"source" : [ "obj-18", 1 ]
								}

							}
, 							{
								"patchline" : 								{
									"destination" : [ "obj-16", 0 ],
									"source" : [ "obj-25", 1 ]
								}

							}
, 							{
								"patchline" : 								{
									"destination" : [ "obj-52", 0 ],
									"source" : [ "obj-25", 0 ]
								}

							}
, 							{
								"patchline" : 								{
									"destination" : [ "obj-30", 0 ],
									"source" : [ "obj-28", 0 ]
								}

							}
, 							{
								"patchline" : 								{
									"destination" : [ "obj-35", 0 ],
									"source" : [ "obj-29", 0 ]
								}

							}
, 							{
								"patchline" : 								{
									"destination" : [ "obj-7", 0 ],
									"source" : [ "obj-3", 0 ]
								}

							}
, 							{
								"patchline" : 								{
									"destination" : [ "obj-29", 0 ],
									"source" : [ "obj-30", 2 ]
								}

							}
, 							{
								"patchline" : 								{
									"destination" : [ "obj-35", 0 ],
									"source" : [ "obj-30", 1 ]
								}

							}
, 							{
								"patchline" : 								{
									"destination" : [ "obj-62", 0 ],
									"source" : [ "obj-30", 0 ]
								}

							}
, 							{
								"patchline" : 								{
									"destination" : [ "obj-35", 0 ],
									"source" : [ "obj-31", 0 ]
								}

							}
, 							{
								"patchline" : 								{
									"destination" : [ "obj-13", 0 ],
									"source" : [ "obj-32", 0 ]
								}

							}
, 							{
								"patchline" : 								{
									"destination" : [ "obj-21", 0 ],
									"source" : [ "obj-35", 0 ]
								}

							}
, 							{
								"patchline" : 								{
									"destination" : [ "obj-21", 0 ],
									"source" : [ "obj-37", 0 ]
								}

							}
, 							{
								"patchline" : 								{
									"destination" : [ "obj-13", 0 ],
									"source" : [ "obj-38", 0 ]
								}

							}
, 							{
								"patchline" : 								{
									"destination" : [ "obj-37", 0 ],
									"source" : [ "obj-39", 0 ]
								}

							}
, 							{
								"patchline" : 								{
									"destination" : [ "obj-7", 1 ],
									"source" : [ "obj-4", 0 ]
								}

							}
, 							{
								"patchline" : 								{
									"destination" : [ "obj-37", 0 ],
									"source" : [ "obj-40", 1 ]
								}

							}
, 							{
								"patchline" : 								{
									"destination" : [ "obj-42", 0 ],
									"source" : [ "obj-40", 2 ]
								}

							}
, 							{
								"patchline" : 								{
									"destination" : [ "obj-63", 0 ],
									"source" : [ "obj-40", 0 ]
								}

							}
, 							{
								"patchline" : 								{
									"destination" : [ "obj-25", 0 ],
									"order" : 1,
									"source" : [ "obj-41", 0 ]
								}

							}
, 							{
								"patchline" : 								{
									"destination" : [ "obj-9", 0 ],
									"order" : 0,
									"source" : [ "obj-41", 0 ]
								}

							}
, 							{
								"patchline" : 								{
									"destination" : [ "obj-37", 0 ],
									"source" : [ "obj-42", 0 ]
								}

							}
, 							{
								"patchline" : 								{
									"destination" : [ "obj-40", 0 ],
									"source" : [ "obj-43", 0 ]
								}

							}
, 							{
								"patchline" : 								{
									"destination" : [ "obj-41", 0 ],
									"source" : [ "obj-44", 0 ]
								}

							}
, 							{
								"patchline" : 								{
									"destination" : [ "obj-6", 0 ],
									"source" : [ "obj-5", 0 ]
								}

							}
, 							{
								"patchline" : 								{
									"destination" : [ "obj-53", 0 ],
									"source" : [ "obj-51", 3 ]
								}

							}
, 							{
								"patchline" : 								{
									"destination" : [ "obj-54", 0 ],
									"source" : [ "obj-51", 2 ]
								}

							}
, 							{
								"patchline" : 								{
									"destination" : [ "obj-56", 0 ],
									"source" : [ "obj-51", 1 ]
								}

							}
, 							{
								"patchline" : 								{
									"destination" : [ "obj-57", 0 ],
									"source" : [ "obj-51", 0 ]
								}

							}
, 							{
								"patchline" : 								{
									"destination" : [ "obj-51", 0 ],
									"source" : [ "obj-52", 0 ]
								}

							}
, 							{
								"patchline" : 								{
									"destination" : [ "obj-55", 3 ],
									"source" : [ "obj-53", 0 ]
								}

							}
, 							{
								"patchline" : 								{
									"destination" : [ "obj-55", 2 ],
									"source" : [ "obj-54", 0 ]
								}

							}
, 							{
								"patchline" : 								{
									"destination" : [ "obj-43", 0 ],
									"order" : 1,
									"source" : [ "obj-55", 0 ]
								}

							}
, 							{
								"patchline" : 								{
									"destination" : [ "obj-52", 1 ],
									"midpoints" : [ 52.5, 251.0, 34.0, 251.0, 34.0, 139.0, 160.5, 139.0 ],
									"order" : 0,
									"source" : [ "obj-55", 0 ]
								}

							}
, 							{
								"patchline" : 								{
									"destination" : [ "obj-55", 1 ],
									"source" : [ "obj-56", 0 ]
								}

							}
, 							{
								"patchline" : 								{
									"destination" : [ "obj-55", 0 ],
									"source" : [ "obj-57", 0 ]
								}

							}
, 							{
								"patchline" : 								{
									"destination" : [ "obj-8", 0 ],
									"source" : [ "obj-6", 0 ]
								}

							}
, 							{
								"patchline" : 								{
									"destination" : [ "obj-31", 0 ],
									"source" : [ "obj-62", 0 ]
								}

							}
, 							{
								"patchline" : 								{
									"destination" : [ "obj-39", 0 ],
									"source" : [ "obj-63", 0 ]
								}

							}
, 							{
								"patchline" : 								{
									"destination" : [ "obj-16", 1 ],
									"midpoints" : [ 292.5, 251.0, 274.0, 251.0, 274.0, 139.0, 400.5, 139.0 ],
									"order" : 0,
									"source" : [ "obj-7", 0 ]
								}

							}
, 							{
								"patchline" : 								{
									"destination" : [ "obj-28", 0 ],
									"order" : 1,
									"source" : [ "obj-7", 0 ]
								}

							}
, 							{
								"patchline" : 								{
									"destination" : [ "obj-32", 0 ],
									"source" : [ "obj-8", 1 ]
								}

							}
, 							{
								"patchline" : 								{
									"destination" : [ "obj-38", 0 ],
									"source" : [ "obj-8", 0 ]
								}

							}
, 							{
								"patchline" : 								{
									"destination" : [ "obj-10", 0 ],
									"source" : [ "obj-9", 0 ]
								}

							}
 ],
						"bgfillcolor_type" : "gradient",
						"bgfillcolor_color1" : [ 0.454902, 0.462745, 0.482353, 1.0 ],
						"bgfillcolor_color2" : [ 0.290196, 0.309804, 0.301961, 1.0 ],
						"bgfillcolor_color" : [ 0.290196, 0.309804, 0.301961, 1.0 ]
					}
,
					"patching_rect" : [ 32.0, 242.0, 56.0, 22.0 ],
					"saved_object_attributes" : 					{
						"description" : "",
						"digest" : "",
						"fontname" : "Lato",
						"fontsize" : 9.0,
						"globalpatchername" : "",
						"tags" : ""
					}
,
					"text" : "p View"
				}

			}
, 			{
				"box" : 				{
					"fontface" : 0,
					"fontname" : "Lato",
					"fontsize" : 10.0,
					"id" : "obj-7",
					"maxclass" : "newobj",
					"numinlets" : 1,
					"numoutlets" : 0,
					"patching_rect" : [ 32.0, 287.0, 48.0, 20.0 ],
					"text" : "onecopy"
				}

			}
, 			{
				"box" : 				{
					"fontface" : 0,
					"fontname" : "Lato",
					"fontsize" : 10.0,
					"id" : "obj-54",
					"maxclass" : "comment",
					"numinlets" : 1,
					"numoutlets" : 0,
					"patching_rect" : [ 208.0, 140.0, 61.0, 18.0 ],
					"presentation" : 1,
					"presentation_rect" : [ 97.0, 73.0, 43.0, 18.0 ],
					"text" : "Types :",
					"textcolor" : [ 0.968627, 0.968627, 0.968627, 1.0 ]
				}

			}
, 			{
				"box" : 				{
					"fontface" : 0,
					"fontname" : "Lato",
					"fontsize" : 10.0,
					"id" : "obj-51",
					"maxclass" : "comment",
					"numinlets" : 1,
					"numoutlets" : 0,
					"patching_rect" : [ 332.0, 52.0, 59.0, 18.0 ],
					"text" : "(< local IP)",
					"textcolor" : [ 0.968627, 0.968627, 0.968627, 1.0 ]
				}

			}
, 			{
				"box" : 				{
					"fontface" : 0,
					"fontname" : "Lato",
					"fontsize" : 10.0,
					"id" : "obj-48",
					"maxclass" : "newobj",
					"numinlets" : 1,
					"numoutlets" : 1,
					"outlettype" : [ "" ],
					"patching_rect" : [ 479.0, 300.0, 46.0, 20.0 ],
					"text" : "pcontrol"
				}

			}
, 			{
				"box" : 				{
					"bgcolor" : [ 0.882352941176471, 0.882352941176471, 0.882352941176471, 0.0 ],
					"fontface" : 1,
					"fontname" : "Lato",
					"fontsize" : 10.0,
					"id" : "obj-22",
					"linecount" : 3,
					"maxclass" : "comment",
					"numinlets" : 1,
					"numoutlets" : 0,
					"patching_rect" : [ 451.0, 206.0, 313.0, 42.0 ],
					"presentation" : 1,
					"presentation_linecount" : 4,
					"presentation_rect" : [ 232.0, 118.0, 206.0, 54.0 ],
					"text" : "Jitter users : it is also possible to send audio/video data over a network, using the jit.net.send and jit.net.recv objects. See also the \"audio-over-network\" Jitter example:",
					"textcolor" : [ 0.968627, 0.968627, 0.968627, 1.0 ],
					"varname" : "autohelp_top_description[2]"
				}

			}
, 			{
				"box" : 				{
					"bgcolor" : [ 0.2, 0.2, 0.2, 1.0 ],
					"fontname" : "Lato",
					"fontsize" : 9.300003,
					"hint" : "",
					"id" : "obj-17",
					"maxclass" : "textbutton",
					"numinlets" : 1,
					"numoutlets" : 3,
					"outlettype" : [ "", "", "int" ],
					"parameter_enable" : 0,
					"patching_rect" : [ 233.0, 77.0, 78.0, 20.0 ],
					"presentation" : 1,
					"presentation_rect" : [ 23.0, 51.0, 56.0, 18.0 ],
					"rounded" : 14.0,
					"text" : "localhost",
					"textcolor" : [ 0.968627, 0.968627, 0.968627, 1.0 ]
				}

			}
, 			{
				"box" : 				{
					"fontface" : 1,
					"fontname" : "Lato",
					"fontsize" : 10.0,
					"id" : "obj-44",
					"linecount" : 2,
					"maxclass" : "comment",
					"numinlets" : 1,
					"numoutlets" : 0,
					"patching_rect" : [ 204.0, 292.0, 191.0, 30.0 ],
					"presentation" : 1,
					"presentation_linecount" : 2,
					"presentation_rect" : [ 232.0, 77.0, 191.0, 30.0 ],
					"text" : "Target applications may reside in this machine and/or in external ones.",
					"textcolor" : [ 0.968627, 0.968627, 0.968627, 1.0 ],
					"varname" : "autohelp_top_description[1]"
				}

			}
, 			{
				"box" : 				{
					"fontface" : 1,
					"fontname" : "Lato",
					"fontsize" : 14.0,
					"id" : "obj-43",
					"linecount" : 2,
					"maxclass" : "comment",
					"numinlets" : 1,
					"numoutlets" : 0,
					"patching_rect" : [ 206.0, 249.0, 184.0, 40.0 ],
					"presentation" : 1,
					"presentation_linecount" : 2,
					"presentation_rect" : [ 232.0, 30.0, 183.0, 40.0 ],
					"text" : "Send Max messages over a network using UDP",
					"textcolor" : [ 0.968627, 0.968627, 0.968627, 1.0 ],
					"varname" : "autohelp_top_description"
				}

			}
, 			{
				"box" : 				{
					"fontface" : 1,
					"fontname" : "Lato",
					"fontsize" : 14.0,
					"id" : "obj-41",
					"maxclass" : "comment",
					"numinlets" : 1,
					"numoutlets" : 0,
					"patching_rect" : [ 679.0, 32.0, 69.0, 23.0 ],
					"presentation" : 1,
					"presentation_rect" : [ 83.0, 137.0, 69.0, 23.0 ],
					"text" : "Receiver",
					"textcolor" : [ 0.968627, 0.968627, 0.968627, 1.0 ]
				}

			}
, 			{
				"box" : 				{
					"fontface" : 1,
					"fontname" : "Lato",
					"fontsize" : 14.0,
					"id" : "obj-40",
					"maxclass" : "comment",
					"numinlets" : 1,
					"numoutlets" : 0,
					"patching_rect" : [ 135.0, 30.0, 58.0, 23.0 ],
					"presentation" : 1,
					"presentation_rect" : [ 88.0, 5.0, 58.0, 23.0 ],
					"text" : "Sender",
					"textcolor" : [ 0.968627, 0.968627, 0.968627, 1.0 ]
				}

			}
, 			{
				"box" : 				{
					"fontface" : 1,
					"fontname" : "Lato",
					"fontsize" : 10.0,
					"id" : "obj-39",
					"maxclass" : "comment",
					"numinlets" : 1,
					"numoutlets" : 0,
					"patching_rect" : [ 140.0, 108.0, 53.0, 18.0 ],
					"presentation" : 1,
					"presentation_rect" : [ 23.0, 73.0, 53.0, 18.0 ],
					"text" : "Message",
					"textcolor" : [ 0.968627, 0.968627, 0.968627, 1.0 ]
				}

			}
, 			{
				"box" : 				{
					"fontface" : 0,
					"fontname" : "Lato",
					"fontsize" : 10.0,
					"id" : "obj-37",
					"linecount" : 3,
					"maxclass" : "comment",
					"numinlets" : 1,
					"numoutlets" : 0,
					"patching_rect" : [ 17.0, 127.0, 78.0, 42.0 ],
					"presentation" : 1,
					"presentation_linecount" : 3,
					"presentation_rect" : [ 23.0, 92.0, 78.0, 42.0 ],
					"text" : "Write anything here and press the enter key",
					"textcolor" : [ 0.968627, 0.968627, 0.968627, 1.0 ]
				}

			}
, 			{
				"box" : 				{
					"fontface" : 0,
					"fontname" : "Lato",
					"fontsize" : 10.0,
					"id" : "obj-36",
					"maxclass" : "newobj",
					"numinlets" : 1,
					"numoutlets" : 1,
					"outlettype" : [ "" ],
					"patching_rect" : [ 615.0, 106.0, 69.0, 20.0 ],
					"text" : "loadmess set"
				}

			}
, 			{
				"box" : 				{
					"fontface" : 0,
					"fontname" : "Lato",
					"fontsize" : 10.0,
					"id" : "obj-35",
					"maxclass" : "newobj",
					"numinlets" : 2,
					"numoutlets" : 2,
					"outlettype" : [ "", "" ],
					"patching_rect" : [ 100.0, 170.0, 52.0, 20.0 ],
					"text" : "route text"
				}

			}
, 			{
				"box" : 				{
					"fontface" : 0,
					"fontname" : "Lato",
					"fontsize" : 10.0,
					"id" : "obj-33",
					"maxclass" : "newobj",
					"numinlets" : 1,
					"numoutlets" : 1,
					"outlettype" : [ "" ],
					"patching_rect" : [ 547.0, 13.0, 78.0, 20.0 ],
					"text" : "loadmess 7400"
				}

			}
, 			{
				"box" : 				{
					"fontface" : 0,
					"fontname" : "Lato",
					"fontsize" : 10.0,
					"id" : "obj-32",
					"maxclass" : "comment",
					"numinlets" : 1,
					"numoutlets" : 0,
					"patching_rect" : [ 706.0, 68.0, 32.0, 18.0 ],
					"presentation" : 1,
					"presentation_rect" : [ 93.0, 166.0, 32.0, 18.0 ],
					"text" : "print",
					"textcolor" : [ 0.968627, 0.968627, 0.968627, 1.0 ]
				}

			}
, 			{
				"box" : 				{
					"fontface" : 0,
					"fontname" : "Lato",
					"fontsize" : 10.0,
					"id" : "obj-31",
					"maxclass" : "newobj",
					"numinlets" : 2,
					"numoutlets" : 1,
					"outlettype" : [ "" ],
					"patching_rect" : [ 687.0, 94.0, 32.5, 20.0 ],
					"text" : "gate"
				}

			}
, 			{
				"box" : 				{
					"fontface" : 0,
					"fontname" : "Lato",
					"fontsize" : 10.0,
					"id" : "obj-30",
					"maxclass" : "newobj",
					"numinlets" : 1,
					"numoutlets" : 0,
					"patching_rect" : [ 687.0, 117.0, 86.0, 20.0 ],
					"text" : "print UDPreceive"
				}

			}
, 			{
				"box" : 				{
					"bgcolor" : [ 0.2, 0.2, 0.2, 1.0 ],
					"id" : "obj-29",
					"maxclass" : "toggle",
					"numinlets" : 1,
					"numoutlets" : 1,
					"outlettype" : [ "int" ],
					"parameter_enable" : 0,
					"patching_rect" : [ 687.0, 68.0, 16.0, 16.0 ],
					"presentation" : 1,
					"presentation_rect" : [ 120.0, 166.0, 17.0, 17.0 ]
				}

			}
, 			{
				"box" : 				{
					"fontface" : 0,
					"fontname" : "Lato",
					"fontsize" : 10.0,
					"id" : "obj-28",
					"maxclass" : "newobj",
					"numinlets" : 1,
					"numoutlets" : 1,
					"outlettype" : [ "" ],
					"patching_rect" : [ 547.0, 106.0, 63.0, 20.0 ],
					"text" : "prepend set"
				}

			}
, 			{
				"box" : 				{
					"bgcolor" : [ 0.867, 0.867, 0.867, 1.0 ],
					"bgfillcolor_angle" : 270.0,
					"bgfillcolor_autogradient" : 0.79,
					"bgfillcolor_color" : [ 0.290196, 0.309804, 0.301961, 1.0 ],
					"bgfillcolor_color1" : [ 0.867, 0.867, 0.867, 1.0 ],
					"bgfillcolor_color2" : [ 0.685, 0.685, 0.685, 1.0 ],
					"bgfillcolor_proportion" : 0.39,
					"bgfillcolor_type" : "gradient",
					"fontface" : 0,
					"fontname" : "Lato",
					"fontsize" : 10.0,
					"gradient" : 0,
					"id" : "obj-26",
					"maxclass" : "message",
					"numinlets" : 2,
					"numoutlets" : 1,
					"outlettype" : [ "" ],
					"patching_rect" : [ 547.0, 57.0, 42.0, 20.0 ],
					"text" : "port $1",
					"textcolor" : [ 0.0, 0.0, 0.0, 1.0 ]
				}

			}
, 			{
				"box" : 				{
					"fontface" : 0,
					"fontname" : "Lato",
					"fontsize" : 10.0,
					"id" : "obj-27",
					"maxclass" : "newobj",
					"numinlets" : 1,
					"numoutlets" : 1,
					"outlettype" : [ "" ],
					"patching_rect" : [ 547.0, 77.0, 84.0, 20.0 ],
					"text" : "udpreceive 7400"
				}

			}
, 			{
				"box" : 				{
					"fontface" : 0,
					"fontname" : "Lato",
					"fontsize" : 10.0,
					"id" : "obj-25",
					"maxclass" : "newobj",
					"numinlets" : 1,
					"numoutlets" : 2,
					"outlettype" : [ "bang", "" ],
					"patching_rect" : [ 58.0, 64.0, 32.5, 20.0 ],
					"text" : "t b l"
				}

			}
, 			{
				"box" : 				{
					"fontface" : 0,
					"fontname" : "Lato",
					"fontsize" : 10.0,
					"id" : "obj-24",
					"maxclass" : "newobj",
					"numinlets" : 1,
					"numoutlets" : 1,
					"outlettype" : [ "" ],
					"patching_rect" : [ 58.0, 41.0, 63.0, 20.0 ],
					"text" : "prepend set"
				}

			}
, 			{
				"box" : 				{
					"fontface" : 0,
					"fontname" : "Lato",
					"fontsize" : 10.0,
					"id" : "obj-23",
					"maxclass" : "newobj",
					"numinlets" : 1,
					"numoutlets" : 1,
					"outlettype" : [ "" ],
					"patching_rect" : [ 100.0, 65.0, 132.0, 20.0 ],
					"text" : "loadmess set any message"
				}

			}
, 			{
				"box" : 				{
					"bgcolor" : [ 0.867, 0.867, 0.867, 1.0 ],
					"bgfillcolor_angle" : 270.0,
					"bgfillcolor_autogradient" : 0.79,
					"bgfillcolor_color" : [ 0.290196, 0.309804, 0.301961, 1.0 ],
					"bgfillcolor_color1" : [ 0.867, 0.867, 0.867, 1.0 ],
					"bgfillcolor_color2" : [ 0.685, 0.685, 0.685, 1.0 ],
					"bgfillcolor_proportion" : 0.39,
					"bgfillcolor_type" : "gradient",
					"fontface" : 0,
					"fontname" : "Lato",
					"fontsize" : 10.0,
					"gradient" : 0,
					"id" : "obj-21",
					"maxclass" : "message",
					"numinlets" : 2,
					"numoutlets" : 1,
					"outlettype" : [ "" ],
					"patching_rect" : [ 324.0, 155.0, 42.0, 20.0 ],
					"text" : "port $1",
					"textcolor" : [ 0.0, 0.0, 0.0, 1.0 ]
				}

			}
, 			{
				"box" : 				{
					"fontface" : 0,
					"fontname" : "Lato",
					"fontsize" : 10.0,
					"id" : "obj-20",
					"maxclass" : "newobj",
					"numinlets" : 1,
					"numoutlets" : 1,
					"outlettype" : [ "" ],
					"patching_rect" : [ 324.0, 109.0, 78.0, 20.0 ],
					"text" : "loadmess 7400"
				}

			}
, 			{
				"box" : 				{
					"fontface" : 0,
					"fontname" : "Lato",
					"fontsize" : 10.0,
					"id" : "obj-19",
					"maxclass" : "newobj",
					"numinlets" : 1,
					"numoutlets" : 1,
					"outlettype" : [ "" ],
					"patching_rect" : [ 217.0, 51.0, 114.0, 20.0 ],
					"text" : "loadmess set 127.0.0.1"
				}

			}
, 			{
				"box" : 				{
					"bgcolor" : [ 0.867, 0.867, 0.867, 1.0 ],
					"bgfillcolor_angle" : 270.0,
					"bgfillcolor_autogradient" : 0.79,
					"bgfillcolor_color" : [ 0.290196, 0.309804, 0.301961, 1.0 ],
					"bgfillcolor_color1" : [ 0.867, 0.867, 0.867, 1.0 ],
					"bgfillcolor_color2" : [ 0.685, 0.685, 0.685, 1.0 ],
					"bgfillcolor_proportion" : 0.39,
					"bgfillcolor_type" : "gradient",
					"fontface" : 0,
					"fontname" : "Lato",
					"fontsize" : 10.0,
					"gradient" : 0,
					"id" : "obj-18",
					"maxclass" : "message",
					"numinlets" : 2,
					"numoutlets" : 1,
					"outlettype" : [ "" ],
					"patching_rect" : [ 251.0, 100.0, 66.0, 20.0 ],
					"text" : "set $1, bang",
					"textcolor" : [ 0.0, 0.0, 0.0, 1.0 ]
				}

			}
, 			{
				"box" : 				{
					"fontface" : 0,
					"fontname" : "Lato",
					"fontsize" : 10.0,
					"id" : "obj-16",
					"maxclass" : "newobj",
					"numinlets" : 2,
					"numoutlets" : 2,
					"outlettype" : [ "", "" ],
					"patching_rect" : [ 217.0, 153.0, 94.0, 20.0 ],
					"text" : "substitute text host"
				}

			}
, 			{
				"box" : 				{
					"fontface" : 0,
					"fontname" : "Lato",
					"fontsize" : 10.0,
					"id" : "obj-15",
					"maxclass" : "newobj",
					"numinlets" : 1,
					"numoutlets" : 0,
					"patching_rect" : [ 217.0, 212.0, 118.0, 20.0 ],
					"text" : "udpsend 127.0.0.1 7400"
				}

			}
, 			{
				"box" : 				{
					"fontface" : 1,
					"fontname" : "Lato",
					"fontsize" : 10.0,
					"id" : "obj-14",
					"maxclass" : "comment",
					"numinlets" : 1,
					"numoutlets" : 0,
					"patching_rect" : [ 491.0, 158.0, 54.0, 18.0 ],
					"presentation" : 1,
					"presentation_rect" : [ 24.0, 166.0, 54.0, 18.0 ],
					"text" : "Message",
					"textcolor" : [ 0.968627, 0.968627, 0.968627, 1.0 ]
				}

			}
, 			{
				"box" : 				{
					"hint" : "",
					"id" : "obj-13",
					"ignoreclick" : 1,
					"maxclass" : "button",
					"numinlets" : 1,
					"numoutlets" : 1,
					"outlettype" : [ "bang" ],
					"parameter_enable" : 0,
					"patching_rect" : [ 510.0, 135.0, 17.0, 17.0 ],
					"presentation" : 1,
					"presentation_rect" : [ 71.0, 164.0, 21.0, 21.0 ]
				}

			}
, 			{
				"box" : 				{
					"border" : 1.0,
					"fontface" : 0,
					"fontname" : "Lato",
					"fontsize" : 10.0,
					"hint" : "",
					"id" : "obj-12",
					"ignoreclick" : 1,
					"keymode" : 1,
					"maxclass" : "textedit",
					"numinlets" : 1,
					"numoutlets" : 4,
					"outlettype" : [ "", "int", "", "" ],
					"parameter_enable" : 0,
					"patching_rect" : [ 547.0, 144.0, 71.0, 27.0 ],
					"presentation" : 1,
					"presentation_rect" : [ 24.0, 188.0, 190.0, 36.0 ],
					"prototypename" : "Arial9",
					"rounded" : 10.0,
					"varname" : "data"
				}

			}
, 			{
				"box" : 				{
					"fontface" : 1,
					"fontname" : "Lato",
					"fontsize" : 10.0,
					"id" : "obj-10",
					"maxclass" : "comment",
					"numinlets" : 1,
					"numoutlets" : 0,
					"patching_rect" : [ 597.0, 36.0, 30.0, 18.0 ],
					"presentation" : 1,
					"presentation_rect" : [ 140.0, 166.0, 30.0, 18.0 ],
					"text" : "Port",
					"textcolor" : [ 0.968627, 0.968627, 0.968627, 1.0 ]
				}

			}
, 			{
				"box" : 				{
					"bgcolor" : [ 0.2, 0.2, 0.2, 1.0 ],
					"fontface" : 0,
					"fontname" : "Lato",
					"fontsize" : 10.0,
					"hint" : "",
					"id" : "obj-11",
					"maxclass" : "number",
					"minimum" : 0,
					"numinlets" : 1,
					"numoutlets" : 2,
					"outlettype" : [ "", "bang" ],
					"parameter_enable" : 0,
					"patching_rect" : [ 547.0, 35.0, 43.0, 20.0 ],
					"presentation" : 1,
					"presentation_rect" : [ 169.0, 165.0, 44.0, 20.0 ],
					"triscale" : 0.5
				}

			}
, 			{
				"box" : 				{
					"bgcolor" : [ 0.2, 0.2, 0.2, 1.0 ],
					"bgfillcolor_angle" : 270.0,
					"bgfillcolor_color" : [ 0.2, 0.2, 0.2, 1.0 ],
					"bgfillcolor_color1" : [ 0.454902, 0.462745, 0.482353, 1.0 ],
					"bgfillcolor_color2" : [ 0.290196, 0.309804, 0.301961, 1.0 ],
					"bgfillcolor_proportion" : 0.39,
					"bgfillcolor_type" : "color",
					"fontface" : 0,
					"fontname" : "Lato",
					"fontsize" : 9.300003,
					"hint" : "",
					"id" : "obj-9",
					"items" : [ "bang", ",", 1, ",", 2.3, ",", 4, 5, 6, "(list)", ",", "any", "message", ",", "/OSC/message/style" ],
					"maxclass" : "umenu",
					"numinlets" : 1,
					"numoutlets" : 3,
					"outlettype" : [ "int", "", "" ],
					"parameter_enable" : 0,
					"patching_rect" : [ 17.0, 18.0, 101.939552000000006, 20.0 ],
					"pattrmode" : 1,
					"prefix_mode" : 2,
					"presentation" : 1,
					"presentation_rect" : [ 137.0, 73.0, 75.939544677734375, 20.0 ],
					"prototypename" : "Arial9",
					"varname" : "input-devices"
				}

			}
, 			{
				"box" : 				{
					"hint" : "Send current message again",
					"id" : "obj-8",
					"maxclass" : "button",
					"numinlets" : 1,
					"numoutlets" : 1,
					"outlettype" : [ "bang" ],
					"parameter_enable" : 0,
					"patching_rect" : [ 61.0, 99.0, 17.0, 17.0 ],
					"presentation" : 1,
					"presentation_rect" : [ 71.0, 71.0, 21.0, 21.0 ]
				}

			}
, 			{
				"box" : 				{
					"fontface" : 0,
					"fontname" : "Lato",
					"fontsize" : 10.0,
					"id" : "obj-6",
					"keymode" : 1,
					"maxclass" : "textedit",
					"numinlets" : 1,
					"numoutlets" : 4,
					"outlettype" : [ "", "int", "", "" ],
					"parameter_enable" : 0,
					"patching_rect" : [ 100.0, 130.0, 111.0, 36.0 ],
					"presentation" : 1,
					"presentation_rect" : [ 99.0, 95.0, 114.0, 36.0 ],
					"text" : "any message"
				}

			}
, 			{
				"box" : 				{
					"fontface" : 1,
					"fontname" : "Lato",
					"fontsize" : 10.0,
					"id" : "obj-5",
					"maxclass" : "comment",
					"numinlets" : 1,
					"numoutlets" : 0,
					"patching_rect" : [ 370.0, 133.0, 42.0, 18.0 ],
					"presentation" : 1,
					"presentation_rect" : [ 170.0, 30.0, 42.0, 18.0 ],
					"text" : "IP port",
					"textcolor" : [ 0.968627, 0.968627, 0.968627, 1.0 ]
				}

			}
, 			{
				"box" : 				{
					"fontface" : 1,
					"fontname" : "Lato",
					"fontsize" : 10.0,
					"id" : "obj-3",
					"maxclass" : "comment",
					"numinlets" : 1,
					"numoutlets" : 0,
					"patching_rect" : [ 215.0, 30.0, 127.0, 18.0 ],
					"presentation" : 1,
					"presentation_rect" : [ 24.0, 30.0, 127.0, 18.0 ],
					"text" : "IP Address or hostname",
					"textcolor" : [ 0.968627, 0.968627, 0.968627, 1.0 ]
				}

			}
, 			{
				"box" : 				{
					"bgcolor" : [ 0.2, 0.2, 0.2, 1.0 ],
					"fontface" : 0,
					"fontname" : "Lato",
					"fontsize" : 10.0,
					"hint" : "",
					"id" : "obj-2",
					"maxclass" : "number",
					"minimum" : 0,
					"numinlets" : 1,
					"numoutlets" : 2,
					"outlettype" : [ "", "bang" ],
					"parameter_enable" : 0,
					"patching_rect" : [ 324.0, 132.0, 43.0, 20.0 ],
					"presentation" : 1,
					"presentation_rect" : [ 169.0, 51.0, 44.0, 20.0 ],
					"triscale" : 0.5
				}

			}
, 			{
				"box" : 				{
					"fontface" : 0,
					"fontname" : "Lato",
					"fontsize" : 10.0,
					"id" : "obj-1",
					"keymode" : 1,
					"maxclass" : "textedit",
					"numinlets" : 1,
					"numoutlets" : 4,
					"outlettype" : [ "", "int", "", "" ],
					"parameter_enable" : 0,
					"patching_rect" : [ 217.0, 131.0, 86.0, 18.0 ],
					"presentation" : 1,
					"presentation_rect" : [ 81.0, 51.0, 86.0, 18.0 ],
					"text" : "127.0.0.1"
				}

			}
, 			{
				"box" : 				{
					"angle" : 0.0,
					"background" : 1,
					"bgcolor" : [ 0.698039, 0.678431, 0.627451, 1.0 ],
					"hint" : "",
					"id" : "obj-55",
					"maxclass" : "panel",
					"mode" : 0,
					"numinlets" : 1,
					"numoutlets" : 0,
					"patching_rect" : [ 341.0, 212.0, 54.0, 18.0 ],
					"presentation" : 1,
					"presentation_rect" : [ 18.0, 160.0, 203.0, 69.0 ],
					"proportion" : 0.39,
					"prototypename" : "Arial9",
					"rounded" : 12,
					"shadow" : 1
				}

			}
, 			{
				"box" : 				{
					"angle" : 0.0,
					"background" : 1,
					"bgcolor" : [ 0.698039, 0.678431, 0.627451, 1.0 ],
					"hint" : "",
					"id" : "obj-273",
					"maxclass" : "panel",
					"mode" : 0,
					"numinlets" : 1,
					"numoutlets" : 0,
					"patching_rect" : [ 627.0, 148.0, 54.0, 18.0 ],
					"presentation" : 1,
					"presentation_rect" : [ 18.0, 28.0, 203.0, 107.0 ],
					"proportion" : 0.39,
					"prototypename" : "Arial9",
					"rounded" : 12,
					"shadow" : 1
				}

			}
 ],
		"lines" : [ 			{
				"patchline" : 				{
					"destination" : [ "obj-16", 0 ],
					"source" : [ "obj-1", 0 ]
				}

			}
, 			{
				"patchline" : 				{
					"destination" : [ "obj-26", 0 ],
					"source" : [ "obj-11", 0 ]
				}

			}
, 			{
				"patchline" : 				{
					"destination" : [ "obj-140", 0 ],
					"hidden" : 1,
					"source" : [ "obj-125", 0 ]
				}

			}
, 			{
				"patchline" : 				{
					"destination" : [ "obj-140", 1 ],
					"hidden" : 1,
					"source" : [ "obj-127", 0 ]
				}

			}
, 			{
				"patchline" : 				{
					"destination" : [ "obj-142", 0 ],
					"source" : [ "obj-140", 0 ]
				}

			}
, 			{
				"patchline" : 				{
					"destination" : [ "obj-15", 0 ],
					"source" : [ "obj-16", 0 ]
				}

			}
, 			{
				"patchline" : 				{
					"destination" : [ "obj-18", 0 ],
					"source" : [ "obj-17", 1 ]
				}

			}
, 			{
				"patchline" : 				{
					"destination" : [ "obj-1", 0 ],
					"source" : [ "obj-18", 0 ]
				}

			}
, 			{
				"patchline" : 				{
					"destination" : [ "obj-1", 0 ],
					"source" : [ "obj-19", 0 ]
				}

			}
, 			{
				"patchline" : 				{
					"destination" : [ "obj-21", 0 ],
					"source" : [ "obj-2", 0 ]
				}

			}
, 			{
				"patchline" : 				{
					"destination" : [ "obj-2", 0 ],
					"source" : [ "obj-20", 0 ]
				}

			}
, 			{
				"patchline" : 				{
					"destination" : [ "obj-15", 0 ],
					"source" : [ "obj-21", 0 ]
				}

			}
, 			{
				"patchline" : 				{
					"destination" : [ "obj-38", 0 ],
					"source" : [ "obj-23", 0 ]
				}

			}
, 			{
				"patchline" : 				{
					"destination" : [ "obj-25", 0 ],
					"source" : [ "obj-24", 0 ]
				}

			}
, 			{
				"patchline" : 				{
					"destination" : [ "obj-6", 0 ],
					"source" : [ "obj-25", 1 ]
				}

			}
, 			{
				"patchline" : 				{
					"destination" : [ "obj-6", 0 ],
					"source" : [ "obj-25", 0 ]
				}

			}
, 			{
				"patchline" : 				{
					"destination" : [ "obj-27", 0 ],
					"source" : [ "obj-26", 0 ]
				}

			}
, 			{
				"patchline" : 				{
					"destination" : [ "obj-13", 0 ],
					"order" : 2,
					"source" : [ "obj-27", 0 ]
				}

			}
, 			{
				"patchline" : 				{
					"destination" : [ "obj-28", 0 ],
					"order" : 1,
					"source" : [ "obj-27", 0 ]
				}

			}
, 			{
				"patchline" : 				{
					"destination" : [ "obj-31", 1 ],
					"order" : 0,
					"source" : [ "obj-27", 0 ]
				}

			}
, 			{
				"patchline" : 				{
					"destination" : [ "obj-12", 0 ],
					"source" : [ "obj-28", 0 ]
				}

			}
, 			{
				"patchline" : 				{
					"destination" : [ "obj-31", 0 ],
					"source" : [ "obj-29", 0 ]
				}

			}
, 			{
				"patchline" : 				{
					"destination" : [ "obj-30", 0 ],
					"source" : [ "obj-31", 0 ]
				}

			}
, 			{
				"patchline" : 				{
					"destination" : [ "obj-11", 0 ],
					"source" : [ "obj-33", 0 ]
				}

			}
, 			{
				"patchline" : 				{
					"destination" : [ "obj-15", 0 ],
					"source" : [ "obj-35", 0 ]
				}

			}
, 			{
				"patchline" : 				{
					"destination" : [ "obj-12", 0 ],
					"source" : [ "obj-36", 0 ]
				}

			}
, 			{
				"patchline" : 				{
					"destination" : [ "obj-6", 0 ],
					"source" : [ "obj-38", 1 ]
				}

			}
, 			{
				"patchline" : 				{
					"destination" : [ "obj-6", 0 ],
					"source" : [ "obj-38", 0 ]
				}

			}
, 			{
				"patchline" : 				{
					"destination" : [ "obj-110", 0 ],
					"hidden" : 1,
					"source" : [ "obj-52", 0 ]
				}

			}
, 			{
				"patchline" : 				{
					"destination" : [ "obj-119", 0 ],
					"hidden" : 1,
					"source" : [ "obj-52", 1 ]
				}

			}
, 			{
				"patchline" : 				{
					"destination" : [ "obj-126", 0 ],
					"order" : 7,
					"source" : [ "obj-58", 0 ]
				}

			}
, 			{
				"patchline" : 				{
					"destination" : [ "obj-130", 0 ],
					"order" : 6,
					"source" : [ "obj-58", 0 ]
				}

			}
, 			{
				"patchline" : 				{
					"destination" : [ "obj-22", 0 ],
					"order" : 1,
					"source" : [ "obj-58", 0 ]
				}

			}
, 			{
				"patchline" : 				{
					"destination" : [ "obj-39", 0 ],
					"order" : 4,
					"source" : [ "obj-58", 0 ]
				}

			}
, 			{
				"patchline" : 				{
					"destination" : [ "obj-40", 0 ],
					"order" : 5,
					"source" : [ "obj-58", 0 ]
				}

			}
, 			{
				"patchline" : 				{
					"destination" : [ "obj-41", 0 ],
					"order" : 0,
					"source" : [ "obj-58", 0 ]
				}

			}
, 			{
				"patchline" : 				{
					"destination" : [ "obj-43", 0 ],
					"order" : 2,
					"source" : [ "obj-58", 0 ]
				}

			}
, 			{
				"patchline" : 				{
					"destination" : [ "obj-44", 0 ],
					"order" : 3,
					"source" : [ "obj-58", 0 ]
				}

			}
, 			{
				"patchline" : 				{
					"destination" : [ "obj-35", 0 ],
					"source" : [ "obj-6", 0 ]
				}

			}
, 			{
				"patchline" : 				{
					"destination" : [ "obj-57", 0 ],
					"source" : [ "obj-60", 0 ]
				}

			}
, 			{
				"patchline" : 				{
					"destination" : [ "obj-64", 0 ],
					"source" : [ "obj-63", 1 ]
				}

			}
, 			{
				"patchline" : 				{
					"destination" : [ "obj-67", 0 ],
					"source" : [ "obj-64", 0 ]
				}

			}
, 			{
				"patchline" : 				{
					"destination" : [ "obj-68", 0 ],
					"source" : [ "obj-64", 1 ]
				}

			}
, 			{
				"patchline" : 				{
					"destination" : [ "obj-48", 0 ],
					"source" : [ "obj-67", 0 ]
				}

			}
, 			{
				"patchline" : 				{
					"destination" : [ "obj-48", 0 ],
					"source" : [ "obj-68", 0 ]
				}

			}
, 			{
				"patchline" : 				{
					"destination" : [ "obj-6", 0 ],
					"source" : [ "obj-8", 0 ]
				}

			}
, 			{
				"patchline" : 				{
					"destination" : [ "obj-24", 0 ],
					"source" : [ "obj-9", 1 ]
				}

			}
 ],
		"dependency_cache" : [ 			{
				"name" : "interfacecolor.js",
				"bootpath" : "C74:/interfaces",
				"type" : "TEXT",
				"implicit" : 1
			}
 ],
		"autosave" : 0,
		"bgcolor" : [ 0.2, 0.2, 0.2, 1.0 ]
	}

}
